<?xml version="1.0" encoding="UTF-8" standalone="no"?>
<!-- Created with Inkscape (http://www.inkscape.org/) -->

<svg
   xmlns:dc="http://purl.org/dc/elements/1.1/"
   xmlns:cc="http://creativecommons.org/ns#"
   xmlns:rdf="http://www.w3.org/1999/02/22-rdf-syntax-ns#"
   xmlns:svg="http://www.w3.org/2000/svg"
   xmlns="http://www.w3.org/2000/svg"
   xmlns:sodipodi="http://sodipodi.sourceforge.net/DTD/sodipodi-0.dtd"
   xmlns:inkscape="http://www.inkscape.org/namespaces/inkscape"
   width="744.09448819"
   height="1052.3622047"
   id="svg2"
   version="1.1"
   inkscape:version="0.48.2 r9819"
   sodipodi:docname="model_example.svg">
  <defs
     id="defs4">
    <inkscape:path-effect
       fuse_tolerance="0"
       vertical_pattern="false"
       prop_units="false"
       tang_offset="0"
       normal_offset="0"
       spacing="0"
       scale_y_rel="false"
       prop_scale="1"
       copytype="single_stretched"
       pattern="m -9.8261461,52.857143 1,0"
       is_visible="true"
       id="path-effect4190"
       effect="skeletal" />
    <inkscape:path-effect
       fuse_tolerance="0"
       vertical_pattern="false"
       prop_units="false"
       tang_offset="0"
       normal_offset="0"
       spacing="0"
       scale_y_rel="false"
       prop_scale="1"
       copytype="single_stretched"
       pattern="m -9.8261476,84.285716 1,0"
       is_visible="true"
       id="path-effect4185"
       effect="skeletal" />
    <inkscape:path-effect
       effect="skeletal"
       id="path-effect3929"
       is_visible="true"
       pattern="m 280.53101,105.71428 1,0"
       copytype="single_stretched"
       prop_scale="1"
       scale_y_rel="false"
       spacing="0"
       normal_offset="0"
       tang_offset="0"
       prop_units="false"
       vertical_pattern="false"
       fuse_tolerance="0" />
    <inkscape:path-effect
       fuse_tolerance="0"
       vertical_pattern="false"
       prop_units="false"
       tang_offset="0"
       normal_offset="0"
       spacing="0"
       scale_y_rel="false"
       prop_scale="1"
       copytype="single_stretched"
       pattern="m -138.04042,105.71428 1,0"
       is_visible="true"
       id="path-effect3925"
       effect="skeletal" />
    <inkscape:path-effect
       effect="skeletal"
       id="path-effect3850"
       is_visible="true"
       pattern="m -9.8261461,52.857143 1,0"
       copytype="single_stretched"
       prop_scale="1"
       scale_y_rel="false"
       spacing="0"
       normal_offset="0"
       tang_offset="0"
       prop_units="false"
       vertical_pattern="false"
       fuse_tolerance="0" />
    <inkscape:path-effect
       effect="skeletal"
       id="path-effect3802"
       is_visible="true"
       pattern="m 299.75237,60.357142 c 0,-2.76 0.81143,-42.836117 3.57143,-42.836117 2.76,0 6.42857,40.076117 6.42857,42.836117 0,2.76 -2.24,30.714286 -5,30.714286 -2.76,0 -5,-27.954286 -5,-30.714286 z"
       copytype="single_stretched"
       prop_scale="1"
       scale_y_rel="false"
       spacing="0"
       normal_offset="0"
       tang_offset="0"
       prop_units="false"
       vertical_pattern="false"
       fuse_tolerance="12.2"
       pattern-nodetypes="sssss" />
    <inkscape:path-effect
       effect="spiro"
       id="path-effect3800"
       is_visible="true" />
  </defs>
  <sodipodi:namedview
     id="base"
     pagecolor="#ffffff"
     bordercolor="#666666"
     borderopacity="1.0"
     inkscape:pageopacity="0.0"
     inkscape:pageshadow="2"
     inkscape:zoom="0.7"
     inkscape:cx="342.15836"
     inkscape:cy="711.7674"
     inkscape:document-units="px"
     inkscape:current-layer="layer1"
     showgrid="false"
     inkscape:window-width="1436"
     inkscape:window-height="856"
     inkscape:window-x="4"
     inkscape:window-y="0"
     inkscape:window-maximized="1" />
  <metadata
     id="metadata7">
    <rdf:RDF>
      <cc:Work
         rdf:about="">
        <dc:format>image/svg+xml</dc:format>
        <dc:type
           rdf:resource="http://purl.org/dc/dcmitype/StillImage" />
        <dc:title></dc:title>
      </cc:Work>
    </rdf:RDF>
  </metadata>
  <g
     inkscape:label="Layer 1"
     inkscape:groupmode="layer"
     id="layer1">
    <g
       id="g4265"
       transform="translate(1.4285714,-67.142857)"
       inkscape:export-filename="/Users/elise/Documents/truthbetold/img/model_example.png"
       inkscape:export-xdpi="65.040001"
       inkscape:export-ydpi="65.040001">
      <g
         transform="translate(4.2857143,-92.857143)"
         id="g4014">
        <g
           id="g3943"
           transform="translate(1.0714194,0)">
          <g
             transform="translate(-20,97.857143)"
             id="g4138">
            <g
               id="g4109">
              <path
                 style="fill:#ffffff;fill-opacity:1;stroke:#2980b9;stroke-width:1.41744065;stroke-linecap:round;stroke-linejoin:round;stroke-miterlimit:4;stroke-opacity:1;stroke-dasharray:none"
                 d="m 109.31197,209.63241 69.01133,-59.0453 c 3.28568,-2.81119 7.3132,-4.8869 11.61334,-5.34219 10e-6,0 10e-6,0 10e-6,0 3.40311,-0.3603 7.12941,0.52195 9.35417,3.12222 0,0 1e-5,1e-5 1e-5,1e-5 l 1.67324,1.95566 c 2.22477,2.60027 2.51989,6.4182 1.63741,9.7246 0,0 0,0 0,0 -1.11509,4.17793 -3.78892,7.83582 -7.0746,10.64701 l -69.01133,59.0453 c -3.28568,2.81119 -7.31321,4.88691 -11.61335,5.34219 0,0 -10e-6,0 -10e-6,0 -3.40312,0.36031 -7.12942,-0.52194 -9.35418,-3.12222 l -1.67324,-1.95566 c 0,0 -1e-5,-1e-5 -1e-5,-1e-5 -2.22476,-2.60028 -2.51987,-6.41821 -1.63739,-9.7246 1.11509,-4.17792 3.78892,-7.83582 7.0746,-10.64701 z"
                 id="path3923"
                 inkscape:path-effect="#path-effect3925"
                 inkscape:original-d="m 109.31197,209.63241 69.01133,-59.0453 c 7.31411,-6.25787 16.66563,-7.24797 20.96753,-2.21996 l 1.67324,1.95566 c 4.3019,5.028 1.87692,14.11374 -5.43719,20.37161 l -69.01133,59.0453 c -7.31411,6.25787 -16.66564,7.24798 -20.96754,2.21997 l -1.67324,-1.95566 c -4.301899,-5.028 -1.87691,-14.11375 5.4372,-20.37162 z"
                 inkscape:connector-curvature="0" />
              <path
                 inkscape:connector-curvature="0"
                 inkscape:original-d="m 614.0983,209.63241 -69.01133,-59.0453 c -7.31411,-6.25787 -16.66563,-7.24797 -20.96753,-2.21996 l -1.67324,1.95566 c -4.3019,5.028 -1.87692,14.11374 5.43719,20.37161 l 69.01133,59.0453 c 7.31411,6.25787 16.66564,7.24798 20.96754,2.21997 l 1.67324,-1.95566 c 4.3019,-5.028 1.87691,-14.11375 -5.4372,-20.37162 z"
                 inkscape:path-effect="#path-effect3929"
                 id="path3927"
                 d="m 614.0983,209.63241 -69.01133,-59.0453 c -3.28568,-2.81119 -7.3132,-4.8869 -11.61334,-5.34218 -10e-6,-1e-5 -10e-6,-1e-5 -10e-6,-1e-5 -3.40311,-0.3603 -7.12941,0.52195 -9.35418,3.12222 0,1e-5 0,1e-5 0,1e-5 l -1.67324,1.95566 c -2.22477,2.60027 -2.51989,6.4182 -1.63741,9.7246 0,0 0,0 0,0 1.11509,4.17793 3.78892,7.83582 7.0746,10.64701 l 69.01133,59.0453 c 3.28568,2.81119 7.3132,4.8869 11.61333,5.34219 10e-6,0 10e-6,0 2e-5,0 3.40312,0.36031 7.12942,-0.52194 9.35419,-3.12222 l 1.67323,-1.95565 10e-6,-1e-5 c 2.22477,-2.60028 2.51988,-6.41821 1.6374,-9.72461 -1.11509,-4.17792 -3.78892,-7.83582 -7.0746,-10.64701 z"
                 style="fill:#ffffff;fill-opacity:1;stroke:#2980b9;stroke-width:1.41744065;stroke-linecap:round;stroke-linejoin:round;stroke-miterlimit:4;stroke-opacity:1;stroke-dasharray:none" />
              <rect
                 style="fill:#2980b9;fill-opacity:1;stroke:#2980b9;stroke-width:3;stroke-linecap:round;stroke-linejoin:round;stroke-miterlimit:4;stroke-opacity:1;stroke-dasharray:none"
                 id="rect3866"
                 width="90.714287"
                 height="35.714287"
                 x="568.49084"
                 y="209.4128"
                 ry="17.857143" />
              <rect
                 ry="17.857143"
                 y="209.50504"
                 x="52.705139"
                 height="35.714287"
                 width="102.21429"
                 id="rect3864"
                 style="fill:#2980b9;fill-opacity:1;stroke:#2980b9;stroke-width:3.18448496;stroke-linecap:round;stroke-linejoin:round;stroke-miterlimit:4;stroke-opacity:1;stroke-dasharray:none" />
              <text
                 xml:space="preserve"
                 style="font-size:20px;font-style:normal;font-weight:normal;line-height:125%;letter-spacing:0px;word-spacing:0px;fill:#ffffff;fill-opacity:1;stroke:none;font-family:Sans"
                 x="57.835724"
                 y="234.81824"
                 id="text3967"
                 sodipodi:linespacing="125%"><tspan
                   sodipodi:role="line"
                   id="tspan3969"
                   x="57.835724"
                   y="234.81824">Evidence</tspan></text>
              <rect
                 style="fill:#2980b9;fill-opacity:1;stroke:#2980b9;stroke-width:3.18448496;stroke-linecap:round;stroke-linejoin:round;stroke-miterlimit:4;stroke-opacity:1;stroke-dasharray:none"
                 id="rect3960"
                 width="102.21429"
                 height="35.714287"
                 x="568.58307"
                 y="209.50504"
                 ry="17.857143" />
              <text
                 xml:space="preserve"
                 style="font-size:20px;font-style:normal;font-weight:normal;line-height:125%;letter-spacing:0px;word-spacing:0px;fill:#ffffff;fill-opacity:1;stroke:none;font-family:Sans"
                 x="573.71362"
                 y="234.81824"
                 id="text3971"
                 sodipodi:linespacing="125%"><tspan
                   sodipodi:role="line"
                   id="tspan3973"
                   x="573.71362"
                   y="234.81824">Evidence</tspan></text>
              <path
                 style="fill:#ffffff;fill-opacity:1;stroke:#2980b9;stroke-width:3;stroke-linecap:round;stroke-linejoin:round;stroke-miterlimit:4;stroke-opacity:1;stroke-dasharray:none"
                 d="m 258.22936,124.86628 206.95156,0 c 9.72707,0 19.65449,1.90046 28.02075,6.86248 1e-5,0 1e-5,1e-5 1e-5,1e-5 3.25938,1.93313 6.27338,4.3732 8.46882,7.46198 0,1e-5 0,1e-5 10e-6,2e-5 1.89775,2.66997 3.10172,5.88135 3.10172,9.15705 l 0,5.05979 c 0,3.2757 -1.20397,6.48709 -3.10173,9.15706 -2.19544,3.08879 -5.20945,5.52886 -8.46883,7.46199 -8.36626,4.96202 -18.29368,6.86248 -28.02075,6.86248 l -206.95156,0 c -9.72708,0 -19.65449,-1.90046 -28.02076,-6.86248 -1e-5,-1e-5 -2e-5,-1e-5 -3e-5,-2e-5 -3.25937,-1.93313 -6.27337,-4.37319 -8.46881,-7.46197 -1.89775,-2.66997 -3.10173,-5.88136 -3.10173,-9.15706 l 0,-5.05979 c 0,-3.2757 1.20397,-6.48707 3.10172,-9.15704 0,-1e-5 1e-5,-2e-5 1e-5,-3e-5 2.19544,-3.08878 5.20944,-5.52884 8.46881,-7.46197 1e-5,-1e-5 2e-5,-1e-5 3e-5,-2e-5 8.36627,-4.96202 18.29368,-6.86248 28.02076,-6.86248 z"
                 id="rect3847"
                 inkscape:path-effect="#path-effect4190"
                 inkscape:original-d="m 258.22936,124.86628 206.95156,0 c 21.93359,0 39.59131,10.47277 39.59131,23.48154 l 0,5.05979 c 0,13.00876 -17.65772,23.48153 -39.59131,23.48153 l -206.95156,0 c -21.93359,0 -39.59133,-10.47277 -39.59133,-23.48153 l 0,-5.05979 c 0,-13.00877 17.65774,-23.48154 39.59133,-23.48154 z"
                 inkscape:connector-curvature="0" />
              <path
                 style="fill:#ffffff;fill-opacity:1;stroke:#2980b9;stroke-width:1.6717155;stroke-linecap:round;stroke-linejoin:round;stroke-miterlimit:4;stroke-opacity:1;stroke-dasharray:none"
                 d="m 387.71656,176.54486 0,64.2615 c 0,1.74574 -0.74477,3.43442 -1.83963,4.79415 -1.33946,1.6635 -3.13074,2.91609 -5.02285,3.90669 0,10e-6 0,10e-6 0,10e-6 -5.06754,2.65309 -10.89901,3.59282 -16.61905,3.59282 -10e-6,0 -10e-6,0 -10e-6,0 l -5.05979,0 c 0,0 0,0 -10e-6,0 -5.72003,0 -11.5515,-0.93973 -16.61904,-3.59282 0,0 0,0 -10e-6,-10e-6 -1.8921,-0.9906 -3.68338,-2.24319 -5.02284,-3.90669 -1.09486,-1.35973 -1.83963,-3.04841 -1.83963,-4.79415 l 0,-64.2615 c 0,-1.74574 0.74477,-3.43442 1.83963,-4.79415 0,-1e-5 1e-5,-1e-5 1e-5,-1e-5 1.33946,-1.6635 3.13073,-2.91609 5.02284,-3.9067 5.06753,-2.65309 10.899,-3.59283 16.61904,-3.59283 0,0 10e-6,0 10e-6,0 l 5.05979,0 c 5.72004,0 11.55152,0.93974 16.61906,3.59283 0,0 10e-6,1e-5 10e-6,1e-5 1.89211,0.99061 3.68338,2.2432 5.02284,3.9067 1.09486,1.35973 1.83963,3.04841 1.83963,4.79415 z"
                 id="path4183"
                 inkscape:path-effect="#path-effect4185"
                 inkscape:original-d="m 387.71656,176.54486 0,64.2615 c 0,6.8107 -10.47277,12.29367 -23.48154,12.29367 l -5.05979,0 c -13.00876,0 -23.48153,-5.48297 -23.48153,-12.29367 l 0,-64.2615 c 0,-6.8107 10.47277,-12.29369 23.48153,-12.29369 l 5.05979,0 c 13.00877,0 23.48154,5.48299 23.48154,12.29369 z"
                 inkscape:connector-curvature="0" />
              <path
                 inkscape:connector-curvature="0"
                 inkscape:original-d="m 258.22936,124.86628 206.95156,0 c 21.93359,0 39.59131,10.47277 39.59131,23.48154 l 0,5.05979 c 0,13.00876 -17.65772,23.48153 -39.59131,23.48153 l -206.95156,0 c -21.93359,0 -39.59133,-10.47277 -39.59133,-23.48153 l 0,-5.05979 c 0,-13.00877 17.65774,-23.48154 39.59133,-23.48154 z"
                 inkscape:path-effect="#path-effect3850"
                 id="path4181"
                 d="m 258.22936,124.86628 206.95156,0 c 9.72707,0 19.65449,1.90046 28.02075,6.86248 1e-5,0 1e-5,1e-5 1e-5,1e-5 3.25938,1.93313 6.27338,4.3732 8.46882,7.46198 0,1e-5 0,1e-5 10e-6,2e-5 1.89775,2.66997 3.10172,5.88135 3.10172,9.15705 l 0,5.05979 c 0,3.2757 -1.20397,6.48709 -3.10173,9.15706 -2.19544,3.08879 -5.20945,5.52886 -8.46883,7.46199 -8.36626,4.96202 -18.29368,6.86248 -28.02075,6.86248 l -206.95156,0 c -9.72708,0 -19.65449,-1.90046 -28.02076,-6.86248 -1e-5,-1e-5 -2e-5,-1e-5 -3e-5,-2e-5 -3.25937,-1.93313 -6.27337,-4.37319 -8.46881,-7.46197 -1.89775,-2.66997 -3.10173,-5.88136 -3.10173,-9.15706 l 0,-5.05979 c 0,-3.2757 1.20397,-6.48707 3.10172,-9.15704 0,-1e-5 1e-5,-2e-5 1e-5,-3e-5 2.19544,-3.08878 5.20944,-5.52884 8.46881,-7.46197 1e-5,-1e-5 2e-5,-1e-5 3e-5,-2e-5 8.36627,-4.96202 18.29368,-6.86248 28.02076,-6.86248 z"
                 style="fill:#ffffff;fill-opacity:1;stroke:#2980b9;stroke-width:3;stroke-linecap:round;stroke-linejoin:round;stroke-miterlimit:4;stroke-opacity:1;stroke-dasharray:none" />
              <g
                 id="g4064">
                <g
                   id="g4046"
                   transform="translate(-55,-2.229514)">
                  <rect
                     ry="23.481531"
                     y="122.01169"
                     x="165.66502"
                     height="63.63961"
                     width="146.9772"
                     id="rect2985"
                     style="fill:#2980b9;fill-opacity:1;stroke:#3c3e50;stroke-width:0;stroke-linecap:round;stroke-linejoin:round;stroke-miterlimit:4;stroke-opacity:1;stroke-dasharray:none" />
                  <text
                     sodipodi:linespacing="125%"
                     id="text3778"
                     y="168.12837"
                     x="176.48761"
                     style="font-size:40px;font-style:normal;font-weight:normal;line-height:125%;letter-spacing:0px;word-spacing:0px;fill:#ffffff;fill-opacity:1;stroke:none;font-family:Sans"
                     xml:space="preserve"><tspan
                       y="168.12837"
                       x="176.48761"
                       id="tspan3780"
                       sodipodi:role="line">Fact A</tspan></text>
                </g>
                <g
                   id="g4059">
                  <rect
                     ry="23.481531"
                     y="119.78217"
                     x="465.76804"
                     height="63.63961"
                     width="146.9772"
                     id="rect3858"
                     style="fill:#2980b9;fill-opacity:1;stroke:#3c3e50;stroke-width:0;stroke-linecap:round;stroke-linejoin:round;stroke-miterlimit:4;stroke-opacity:1;stroke-dasharray:none" />
                  <text
                     xml:space="preserve"
                     style="font-size:40px;font-style:normal;font-weight:normal;line-height:125%;letter-spacing:0px;word-spacing:0px;fill:#ffffff;fill-opacity:1;stroke:none;font-family:Sans"
                     x="477.80157"
                     y="165.89886"
                     id="text3860"
                     sodipodi:linespacing="125%"><tspan
                       sodipodi:role="line"
                       id="tspan3862"
                       x="477.80157"
                       y="165.89886">Fact B</tspan></text>
                </g>
              </g>
            </g>
            <text
               xml:space="preserve"
               style="font-size:40px;font-style:normal;font-weight:normal;line-height:125%;letter-spacing:0px;word-spacing:0px;fill:#2980b9;fill-opacity:1;stroke:none;font-family:Sans"
               x="280.01569"
               y="165.78983"
               id="text3852"
               sodipodi:linespacing="125%"><tspan
                 sodipodi:role="line"
                 id="tspan3854"
                 x="280.01569"
                 y="165.78983">Relation</tspan></text>
          </g>
          <g
             transform="translate(-3.8165256,-21.669876)"
             id="g4174">
            <rect
               ry="23.481531"
               y="315.49646"
               x="276.11978"
               height="63.63961"
               width="146.9772"
               id="rect4044"
               style="fill:#2980b9;fill-opacity:1;stroke:#3c3e50;stroke-width:0;stroke-linecap:round;stroke-linejoin:round;stroke-miterlimit:4;stroke-opacity:1;stroke-dasharray:none" />
            <text
               xml:space="preserve"
               style="font-size:40px;font-style:normal;font-weight:normal;line-height:125%;letter-spacing:0px;word-spacing:0px;fill:#ffffff;fill-opacity:1;stroke:none;font-family:Sans"
               x="287.57715"
               y="361.8768"
               id="text4170"
               sodipodi:linespacing="125%"><tspan
                 sodipodi:role="line"
                 id="tspan4172"
                 x="287.57715"
                 y="361.8768">Fact C</tspan></text>
          </g>
        </g>
      </g>
    </g>
  </g>
</svg>
